<?xml version="1.0" encoding="UTF-8"?>
<svg width="58px" height="16px" viewBox="0 0 58 16" version="1.1" xmlns="http://www.w3.org/2000/svg" xmlns:xlink="http://www.w3.org/1999/xlink">
    <title>会员特惠</title>
    <g id="20210311_站酷4.5.2" stroke="none" stroke-width="1" fill="none" fill-rule="evenodd">
        <g id="高高手课程活动标签" transform="translate(-937.000000, -4.000000)">
            <g id="会员特惠" transform="translate(937.000000, 4.000000)">
                <path d="M8,0 L50,0 C54.418278,-8.11624501e-16 58,3.581722 58,8 C58,12.418278 54.418278,16 50,16 L0,16 L0,16 L0,8 C-5.41083001e-16,3.581722 3.581722,8.11624501e-16 8,0 Z" id="矩形" fill="#FF4A3B"></path>
                <path d="M5.948,7.176 C6.692,6.768 7.388,6.336 8.036,5.88 L8.036,6.828 L14,6.828 L14,5.928 C14.624,6.384 15.284,6.792 16.004,7.164 L16.628,6.06 C14.66,5.1 12.932,3.792 11.42,2.136 L10.58,2.136 C9.188,3.708 7.436,5.016 5.336,6.072 L5.948,7.176 Z M13.76,5.748 L8.216,5.748 C9.296,4.968 10.22,4.104 11,3.156 C11.804,4.116 12.728,4.98 13.76,5.748 Z M14.684,13.224 L15.632,12.552 C15.032,11.676 14.192,10.644 13.1,9.456 L12.212,10.02 C12.644,10.5 13.04,10.968 13.4,11.436 C11.792,11.628 10.136,11.772 8.408,11.868 C9.116,11.124 9.74,10.26 10.28,9.264 L15.872,9.264 L15.872,8.16 L6.152,8.16 L6.152,9.264 L8.96,9.264 C8.504,10.104 7.952,10.896 7.304,11.652 C7.184,11.784 6.992,11.892 6.716,11.964 L7.028,12.948 C9.836,12.78 12.176,12.552 14.036,12.264 C14.264,12.588 14.48,12.912 14.684,13.224 Z M26.432,5.724 L26.432,2.52 L19.58,2.52 L19.58,5.724 L26.432,5.724 Z M25.328,4.74 L20.684,4.74 L20.684,3.528 L25.328,3.528 L25.328,4.74 Z M20,11.184 L20,7.5 L26.012,7.5 L26.012,11.004 L27.14,11.004 L27.14,6.456 L18.872,6.456 L18.872,11.184 L20,11.184 Z M18.188,13.284 C20.504,13.068 21.968,12.576 22.568,11.832 C23.144,11.232 23.516,10.032 23.684,8.232 L22.532,8.124 C22.436,9.564 22.124,10.572 21.584,11.16 C20.96,11.784 19.676,12.144 17.744,12.24 L18.188,13.284 Z M27.596,13.296 L28.22,12.348 C26.924,11.76 25.508,11.256 23.948,10.836 L23.384,11.688 C24.824,12.072 26.228,12.612 27.596,13.296 Z M40.484,6.612 L40.484,5.532 L37.844,5.532 L37.844,4.392 L39.956,4.392 L39.956,3.348 L37.844,3.348 L37.844,2.148 L36.692,2.148 L36.692,3.348 L34.7,3.348 L34.7,4.392 L36.692,4.392 L36.692,5.532 L34.04,5.532 L34.04,6.612 L40.484,6.612 Z M32.78,13.236 L32.78,9.3 C33.116,9.18 33.452,9.036 33.788,8.892 L33.788,7.812 C33.464,7.956 33.128,8.088 32.78,8.232 L32.78,5.676 L33.74,5.676 L33.74,4.572 L32.78,4.572 L32.78,2.172 L31.688,2.172 L31.688,4.572 L30.968,4.572 C31.016,4.116 31.04,3.66 31.064,3.192 L30.032,3.12 C29.984,4.512 29.78,5.832 29.42,7.08 L30.416,7.368 C30.572,6.816 30.704,6.252 30.812,5.676 L31.688,5.676 L31.688,8.628 C30.956,8.844 30.212,9.024 29.468,9.168 L29.744,10.272 C30.404,10.104 31.052,9.912 31.688,9.696 L31.688,13.236 L32.78,13.236 Z M38.012,13.152 C38.732,13.152 39.104,12.756 39.104,11.964 L39.104,8.844 L40.376,8.844 L40.376,7.764 L39.104,7.764 L39.104,7.08 L38,7.08 L38,7.764 L34.304,7.764 L34.304,8.844 L38,8.844 L38,11.676 C38,11.988 37.868,12.156 37.616,12.156 C37.184,12.156 36.728,12.12 36.248,12.072 L36.488,13.152 L38.012,13.152 Z M35.828,11.628 L36.728,10.992 C36.392,10.488 35.924,9.888 35.324,9.204 L34.436,9.768 C35.012,10.44 35.48,11.064 35.828,11.628 Z M51.548,9.936 L52.388,9.36 C52.028,8.952 51.536,8.472 50.912,7.944 L51.332,7.944 L51.332,4.356 L47.564,4.356 L47.564,3.828 L52.352,3.828 L52.352,2.868 L47.564,2.868 L47.564,2.136 L46.436,2.136 L46.436,2.868 L41.648,2.868 L41.648,3.828 L46.436,3.828 L46.436,4.356 L42.668,4.356 L42.668,7.944 L46.436,7.944 L46.436,8.52 C45.068,8.544 43.556,8.556 41.9,8.58 L42.044,9.576 C46.1,9.468 49.064,9.348 50.924,9.216 C51.152,9.456 51.356,9.696 51.548,9.936 Z M46.436,5.784 L43.748,5.784 L43.748,5.196 L46.436,5.196 L46.436,5.784 Z M50.252,5.784 L47.564,5.784 L47.564,5.196 L50.252,5.196 L50.252,5.784 Z M50.252,7.104 L47.564,7.104 L47.564,6.516 L50.252,6.516 L50.252,7.104 Z M46.436,7.104 L43.748,7.104 L43.748,6.516 L46.436,6.516 L46.436,7.104 Z M47.564,8.496 L47.564,7.944 L50.012,7.944 L49.772,8.1 L50.108,8.412 C49.352,8.436 48.5,8.472 47.564,8.496 Z M47.648,11.592 L48.5,11.004 C48.176,10.596 47.72,10.128 47.132,9.588 L46.28,10.116 C46.856,10.656 47.312,11.148 47.648,11.592 Z M51.632,12.588 L52.532,11.988 C52.112,11.316 51.512,10.536 50.732,9.66 L49.868,10.2 C50.612,11.076 51.2,11.868 51.632,12.588 Z M48.716,13.044 C49.148,13.044 49.46,12.96 49.664,12.792 C49.88,12.612 50.036,12.072 50.12,11.16 L49.088,10.824 C49.052,11.388 48.98,11.724 48.884,11.844 C48.812,11.94 48.68,12 48.512,12 L45.86,12 C45.572,12 45.44,11.88 45.44,11.652 L45.44,9.888 L44.336,9.888 L44.336,11.892 C44.336,12.66 44.732,13.044 45.524,13.044 L48.716,13.044 Z M42.476,12.816 C42.992,12.06 43.388,11.172 43.676,10.14 L42.656,9.936 C42.428,10.752 42.056,11.508 41.54,12.216 L42.476,12.816 Z" fill="#FFFFFF" fill-rule="nonzero"></path>
            </g>
        </g>
    </g>
</svg>